<svg width="106" height="45" viewBox="0 0 106 45" fill="none" xmlns="http://www.w3.org/2000/svg">
<rect width="106" height="45" rx="3" fill="#F3F3F3"/>
<path d="M23.768 30.2535H18.168L17.064 32.8455H14.92L19.96 21.6455H22.008L27.064 32.8455H24.888L23.768 30.2535ZM23.08 28.6215L20.968 23.7255L18.872 28.6215H23.08ZM36.4244 27.0215C37.043 27.2242 37.5337 27.5655 37.8964 28.0455C38.259 28.5149 38.4404 29.1015 38.4404 29.8055C38.4404 30.7762 38.067 31.5282 37.3204 32.0615C36.5737 32.5842 35.4857 32.8455 34.0564 32.8455H28.4884V21.6455H33.7364C35.059 21.6455 36.0777 21.9069 36.7924 22.4295C37.507 22.9415 37.8644 23.6509 37.8644 24.5575C37.8644 25.1122 37.7364 25.6029 37.4804 26.0295C37.2244 26.4562 36.8724 26.7869 36.4244 27.0215ZM30.5684 23.2775V26.3655H33.5124C34.2377 26.3655 34.7924 26.2375 35.1764 25.9815C35.571 25.7149 35.7684 25.3309 35.7684 24.8295C35.7684 24.3175 35.571 23.9335 35.1764 23.6775C34.7924 23.4109 34.2377 23.2775 33.5124 23.2775H30.5684ZM33.9284 31.2135C35.539 31.2135 36.3444 30.6749 36.3444 29.5975C36.3444 28.5202 35.539 27.9815 33.9284 27.9815H30.5684V31.2135H33.9284ZM45.8443 33.0055C44.7136 33.0055 43.6896 32.7602 42.7723 32.2695C41.8656 31.7682 41.1509 31.0802 40.6283 30.2055C40.1163 29.3309 39.8603 28.3442 39.8603 27.2455C39.8603 26.1469 40.1216 25.1602 40.6443 24.2855C41.1669 23.4109 41.8816 22.7282 42.7883 22.2375C43.7056 21.7362 44.7296 21.4855 45.8603 21.4855C46.7776 21.4855 47.6149 21.6455 48.3723 21.9655C49.1296 22.2855 49.7696 22.7495 50.2923 23.3575L48.9483 24.6215C48.1376 23.7469 47.1403 23.3095 45.9563 23.3095C45.1883 23.3095 44.5003 23.4802 43.8923 23.8215C43.2843 24.1522 42.8096 24.6162 42.4683 25.2135C42.1269 25.8109 41.9563 26.4882 41.9563 27.2455C41.9563 28.0029 42.1269 28.6802 42.4683 29.2775C42.8096 29.8749 43.2843 30.3442 43.8923 30.6855C44.5003 31.0162 45.1883 31.1815 45.9563 31.1815C47.1403 31.1815 48.1376 30.7389 48.9483 29.8535L50.2923 31.1335C49.7696 31.7415 49.1243 32.2055 48.3563 32.5255C47.5989 32.8455 46.7616 33.0055 45.8443 33.0055ZM59.7791 21.6455V32.8455H57.6991V23.3895H55.3311V21.6455H59.7791ZM70.1129 31.0855V32.8455H61.8569V31.4535L66.3049 27.2295C66.8062 26.7495 67.1422 26.3335 67.3129 25.9815C67.4942 25.6189 67.5849 25.2615 67.5849 24.9095C67.5849 24.3869 67.4089 23.9869 67.0569 23.7095C66.7049 23.4322 66.1875 23.2935 65.5049 23.2935C64.3635 23.2935 63.4889 23.6829 62.8809 24.4615L61.4249 23.3415C61.8622 22.7549 62.4489 22.3015 63.1849 21.9815C63.9315 21.6509 64.7635 21.4855 65.6809 21.4855C66.8969 21.4855 67.8675 21.7735 68.5929 22.3495C69.3182 22.9255 69.6809 23.7095 69.6809 24.7015C69.6809 25.3095 69.5529 25.8802 69.2969 26.4135C69.0409 26.9469 68.5502 27.5549 67.8249 28.2375L64.8329 31.0855H70.1129ZM76.0814 26.2695C77.116 26.3975 77.9054 26.7495 78.4494 27.3255C78.9934 27.9015 79.2654 28.6215 79.2654 29.4855C79.2654 30.1362 79.1 30.7282 78.7694 31.2615C78.4387 31.7949 77.9374 32.2215 77.2654 32.5415C76.604 32.8509 75.7934 33.0055 74.8334 33.0055C74.0334 33.0055 73.26 32.8935 72.5134 32.6695C71.7774 32.4349 71.148 32.1149 70.6254 31.7095L71.5214 30.0935C71.9267 30.4349 72.4174 30.7069 72.9934 30.9095C73.58 31.1015 74.1827 31.1975 74.8014 31.1975C75.5374 31.1975 76.1134 31.0482 76.5294 30.7495C76.956 30.4402 77.1694 30.0242 77.1694 29.5015C77.1694 28.9789 76.9667 28.5735 76.5614 28.2855C76.1667 27.9869 75.5587 27.8375 74.7374 27.8375H73.7134V26.4135L76.2574 23.3895H71.1694V21.6455H78.8014V23.0375L76.0814 26.2695ZM90.6099 30.3015H88.6259V32.8455H86.6099V30.3015H80.4659V28.8615L85.9859 21.6455H88.2099L83.0099 28.5415H86.6739V26.2855H88.6259V28.5415H90.6099V30.3015Z" fill="black"/>
<path d="M0 3C0 1.34315 1.34315 0 3 0H103C104.657 0 106 1.34315 106 3V10H0V3Z" fill="#0049FF"/>
</svg>
