<svg width="55" height="57" viewBox="0 0 55 57" fill="none" xmlns="http://www.w3.org/2000/svg">
<mask id="mask0" mask-type="alpha" maskUnits="userSpaceOnUse" x="0" y="0" width="55" height="57">
<path d="M26.44 49.0515L28.2666 42.649L49.7629 20.7025L50.4348 21.3932L51.4263 20.3794C51.6178 20.1801 51.8475 20.0215 52.1017 19.913C52.356 19.8045 52.6295 19.7484 52.9059 19.7481C53.1823 19.7478 53.4559 19.8032 53.7104 19.9111C53.9649 20.019 54.195 20.1771 54.387 20.376C54.7801 20.7802 55 21.3217 55 21.8855C55 22.4494 54.7801 22.9909 54.387 23.3951L53.3817 24.4227L54.2186 25.2818L32.7257 47.2318L26.6857 49.0532H35.2258V50.83H10.7963V49.0515H26.44ZM49.7475 27.3335C49.4582 27.3459 49.1696 27.2965 48.9008 27.1886C48.6321 27.0808 48.3894 26.917 48.1889 26.708C47.8518 26.3635 47.64 25.9157 47.5875 25.4365L29.8131 43.5838L28.9797 46.5067L31.8098 45.6544L49.7492 27.3335H49.7475ZM52.1549 23.1614L53.1601 22.1338C53.2247 22.0661 53.2605 21.9759 53.2598 21.8823C53.2592 21.7887 53.2222 21.6989 53.1566 21.6321C53.1246 21.5988 53.0861 21.5724 53.0436 21.5543C53.0011 21.5362 52.9554 21.5269 52.9092 21.5269C52.863 21.5269 52.8173 21.5362 52.7748 21.5543C52.7323 21.5724 52.6938 21.5988 52.6618 21.6321L51.6617 22.6545L52.1549 23.1614ZM50.9245 24.4192L50.4314 23.9106L49.4158 24.9502C49.3508 25.0188 49.3153 25.1101 49.3169 25.2045C49.3186 25.299 49.3571 25.3891 49.4244 25.4554C49.5567 25.5929 49.7767 25.5929 49.9141 25.4502L50.9245 24.4192ZM10.7963 1.77847V0H41.7091C43.9842 0 45.8468 1.80425 45.8468 4.05527V22.5669H44.1062V4.0587C44.1062 2.80947 43.0442 1.78019 41.7091 1.78019H10.7963V1.77847ZM44.1062 36.5747H45.8468V52.6549C45.8468 54.9059 43.9842 56.7101 41.7091 56.7101H4.13775C1.86267 56.7101 0 54.9059 0 52.6549V10.2447H1.74067V52.6532C1.74067 53.9007 2.80432 54.9317 4.13775 54.9317H41.7091C43.0442 54.9317 44.1062 53.9007 44.1062 52.6532V36.573V36.5747ZM10.7963 12.2259V10.444H35.2276V12.2225H10.7963V12.2259ZM10.7963 18.0305V16.252H35.2276V18.0287H10.7963V18.0305ZM10.7963 23.5394V21.761H35.2276V23.5394H10.7963ZM10.7963 29.0484V27.2699H35.2276V29.0484H10.7963Z" fill="white"/>
</mask>
<g mask="url(#mask0)">
<path d="M26.44 49.0515L28.2666 42.649L49.7629 20.7025L50.4348 21.3932L51.4263 20.3794C51.6178 20.1801 51.8475 20.0215 52.1017 19.913C52.356 19.8045 52.6295 19.7484 52.9059 19.7481C53.1823 19.7478 53.4559 19.8032 53.7104 19.9111C53.9649 20.019 54.195 20.1771 54.387 20.376C54.7801 20.7802 55 21.3217 55 21.8855C55 22.4494 54.7801 22.9909 54.387 23.3951L53.3817 24.4227L54.2186 25.2818L32.7257 47.2318L26.6857 49.0532H35.2258V50.83H10.7963V49.0515H26.44ZM49.7475 27.3335C49.4582 27.3459 49.1696 27.2965 48.9008 27.1886C48.6321 27.0808 48.3894 26.917 48.1889 26.708C47.8518 26.3635 47.64 25.9157 47.5875 25.4365L29.8131 43.5838L28.9797 46.5067L31.8098 45.6544L49.7492 27.3335H49.7475ZM52.1549 23.1614L53.1601 22.1338C53.2247 22.0661 53.2605 21.9759 53.2598 21.8823C53.2592 21.7887 53.2222 21.6989 53.1566 21.6321C53.1246 21.5988 53.0861 21.5724 53.0436 21.5543C53.0011 21.5362 52.9554 21.5269 52.9092 21.5269C52.863 21.5269 52.8173 21.5362 52.7748 21.5543C52.7323 21.5724 52.6938 21.5988 52.6618 21.6321L51.6617 22.6545L52.1549 23.1614ZM50.9245 24.4192L50.4314 23.9106L49.4158 24.9502C49.3508 25.0188 49.3153 25.1101 49.3169 25.2045C49.3186 25.299 49.3571 25.3891 49.4244 25.4554C49.5567 25.5929 49.7767 25.5929 49.9141 25.4502L50.9245 24.4192ZM10.7963 1.77847V0H41.7091C43.9842 0 45.8468 1.80425 45.8468 4.05527V22.5669H44.1062V4.0587C44.1062 2.80947 43.0442 1.78019 41.7091 1.78019H10.7963V1.77847ZM44.1062 36.5747H45.8468V52.6549C45.8468 54.9059 43.9842 56.7101 41.7091 56.7101H4.13775C1.86267 56.7101 0 54.9059 0 52.6549V10.2447H1.74067V52.6532C1.74067 53.9007 2.80432 54.9317 4.13775 54.9317H41.7091C43.0442 54.9317 44.1062 53.9007 44.1062 52.6532V36.573V36.5747ZM10.7963 12.2259V10.444H35.2276V12.2225H10.7963V12.2259ZM10.7963 18.0305V16.252H35.2276V18.0287H10.7963V18.0305ZM10.7963 23.5394V21.761H35.2276V23.5394H10.7963ZM10.7963 29.0484V27.2699H35.2276V29.0484H10.7963Z" fill="#616161"/>
<path fill-rule="evenodd" clip-rule="evenodd" d="M-1.20111 -1.21658H56.461V57.1569H-1.20111V-1.21658Z" fill="#616161"/>
</g>
<mask id="mask1" mask-type="alpha" maskUnits="userSpaceOnUse" x="0" y="0" width="29" height="51">
<path d="M17.0751 42.1885C16.5991 43.6079 15.5595 45.1612 13.9546 46.8624C14.2072 47.3315 14.5096 47.7112 14.8601 47.9793C16.508 49.2302 17.9463 47.5119 19.2419 41.6026L20.9774 41.96C20.187 46.1527 20.5753 48.0446 21.6476 48.1528C24.8059 48.4742 23.9604 41.96 24.445 41.96C24.823 41.96 25.476 42.0081 25.7698 42.192C26.0654 42.3775 26.4537 44.9121 25.189 47.7783C25.2784 48.1305 25.3763 48.3797 25.4709 48.4742C25.8558 48.8556 26.33 48.8196 27.1634 48.1855L28.2322 49.6066C26.7648 50.7235 25.3282 50.83 24.2285 49.7457C24.0534 49.5616 23.911 49.3489 23.8075 49.1168C23.0394 49.689 22.2438 49.9966 21.4929 49.9296C20.2213 49.8196 19.4275 49.0842 19.0529 47.7748C18.8337 48.1847 18.5747 48.5721 18.2796 48.9313C17.0115 50.4468 15.386 50.6118 13.7913 49.3986C13.3456 49.0492 12.9677 48.6212 12.6761 48.1357C11.8462 48.9192 10.9063 49.7337 9.85464 50.5791L8.74803 49.1873C9.84438 48.3137 10.8978 47.3876 11.9046 46.4122C10.4492 41.8534 11.7826 34.6158 14.8601 33.8993C16.8156 33.4439 17.9068 34.7052 18.015 36.8084C18.0923 38.2862 17.7195 40.2726 17.0751 42.1868V42.1885ZM20.9723 41.9857C20.4207 44.5031 19.7883 46.4276 19.0529 47.7748C18.6508 46.3658 18.7333 44.2969 19.235 41.6283L20.9705 41.9857H20.9723ZM13.1367 41.0149C13.0026 42.4445 13.0628 43.7952 13.2965 44.9413C14.3687 43.7058 15.0681 42.5958 15.3945 41.618C15.9736 39.8963 16.3087 38.1178 16.2451 36.9012C16.1867 35.7688 15.9358 35.4784 15.2605 35.6348C14.4151 35.8324 13.4047 38.1504 13.1349 41.0132L13.1367 41.0149ZM0 0H7.15342V7.19294H0V0Z" fill="white"/>
</mask>
<g mask="url(#mask1)">
<path d="M17.0751 42.1885C16.5991 43.6079 15.5595 45.1612 13.9546 46.8624C14.2072 47.3315 14.5096 47.7112 14.8601 47.9793C16.508 49.2302 17.9463 47.5119 19.2419 41.6026L20.9774 41.96C20.187 46.1527 20.5753 48.0446 21.6476 48.1528C24.8059 48.4742 23.9604 41.96 24.445 41.96C24.823 41.96 25.476 42.0081 25.7698 42.192C26.0654 42.3775 26.4537 44.9121 25.189 47.7783C25.2784 48.1305 25.3763 48.3797 25.4709 48.4742C25.8558 48.8556 26.33 48.8196 27.1634 48.1855L28.2322 49.6066C26.7648 50.7235 25.3282 50.83 24.2285 49.7457C24.0534 49.5616 23.911 49.3489 23.8075 49.1168C23.0394 49.689 22.2438 49.9966 21.4929 49.9296C20.2213 49.8196 19.4275 49.0842 19.0529 47.7748C18.8337 48.1847 18.5747 48.5721 18.2796 48.9313C17.0115 50.4468 15.386 50.6118 13.7913 49.3986C13.3456 49.0492 12.9677 48.6212 12.6761 48.1357C11.8462 48.9192 10.9063 49.7337 9.85464 50.5791L8.74803 49.1873C9.84438 48.3137 10.8978 47.3876 11.9046 46.4122C10.4492 41.8534 11.7826 34.6158 14.8601 33.8993C16.8156 33.4439 17.9068 34.7052 18.015 36.8084C18.0923 38.2862 17.7195 40.2726 17.0751 42.1868V42.1885ZM20.9723 41.9857C20.4207 44.5031 19.7883 46.4276 19.0529 47.7748C18.6508 46.3658 18.7333 44.2969 19.235 41.6283L20.9705 41.9857H20.9723ZM13.1367 41.0149C13.0026 42.4445 13.0628 43.7952 13.2965 44.9413C14.3687 43.7058 15.0681 42.5958 15.3945 41.618C15.9736 39.8963 16.3087 38.1178 16.2451 36.9012C16.1867 35.7688 15.9358 35.4784 15.2605 35.6348C14.4151 35.8324 13.4047 38.1504 13.1349 41.0132L13.1367 41.0149ZM0 0H7.15342V7.19294H0V0Z" fill="#FF5630"/>
<path fill-rule="evenodd" clip-rule="evenodd" d="M-1.20111 -1.21658H56.461V57.1569H-1.20111V-1.21658Z" fill="#FF5630"/>
</g>
</svg>
